<?xml version="1.0" encoding="utf-8"?>
<!-- Generator: Adobe Illustrator 24.1.2, SVG Export Plug-In . SVG Version: 6.00 Build 0)  -->
<svg version="1.1" id="Layer_1" xmlns="http://www.w3.org/2000/svg" xmlns:xlink="http://www.w3.org/1999/xlink" x="0px" y="0px"
	 viewBox="0 0 1000 1000" style="enable-background:new 0 0 1000 1000;" xml:space="preserve">
<style type="text/css">
	.st0{fill:#F2F4F4;}
	.st1{fill:#157CA0;}
	.st2{fill:#B8E9F4;}
	.st3{fill:#30C7EF;}
	.st4{fill:#FFFFFF;}
</style>
<g>
	<ellipse class="st0" cx="617.9" cy="504.1" rx="264.4" ry="264.6"/>
	<ellipse class="st0" cx="339.5" cy="456.2" rx="222.9" ry="223"/>
	<path class="st1" d="M559.6,533.3c0,0-128.5-48.3-139.5-50.4s-13.5-20.7-20.4-20.4s-69.1,0-75,29s38.6,164.7,48.2,173
		c9.7,8.3,158.4-13.3,184-19.5c25.6-6.2,78.1-3.1,82.9-66s-14.9-74.3-14.9-74.3L559.6,533.3z"/>
	<g>
		<path class="st2" d="M603.4,511.8L402,602c-3.1,1.4-6.7,0-8-3.1L284.2,353.8c-1.4-3.1,0-6.7,3.1-8l201.4-90.2c3.1-1.4,6.7,0,8,3.1
			l109.7,245.2C607.8,506.8,606.4,510.4,603.4,511.8z"/>
		<g>
			<path class="st1" d="M432.8,429l-1.7-3.3c-3.8-6.7-4.8-15.3-1.7-25.9c2.9-9.4,3.9-15.8,1.4-21.7c-2.9-6.6-8.9-9.2-17.1-5.8
				c-4.7,2-9.2,5.8-11.3,9.7l-6.6-6.8c2.9-5,9.4-10.2,16.3-13.2c14.9-6.4,25.6-0.2,29.8,9.7c3.8,8.8,1.6,17.3-1.4,27.3
				c-2.8,9.2-2.4,15.8,0.9,22.2l1.6,3.3L432.8,429z M437.8,448.4c-2.1-4.8-0.3-9.6,4.2-11.5c4.5-2,9.1,0.1,11.2,4.9
				c2,4.5,0.5,9.3-4.3,11.4C444.4,455.1,439.8,452.9,437.8,448.4z"/>
		</g>
	</g>
	<path class="st3" d="M604,634.2c-51.7,15.4-166.6,31.8-198.4,37c-30.8,5.1-36.2-11.6-36.4-12.5c0.4,0.4,15.1,14,27.2-22.4
		c12.3-36.9,10.4-152.2,10.4-152.2c2.3-25.6,10.3-37.1,32.7-41.9c9.2-2,49.1-5.9,49.1-5.9c15-0.6,19.5-1.7,19.5,15.8
		c0,17,59,10.7,59,10.7s69.1-4.8,72.4,21.9l5.7,64.8C645.2,549.5,655.7,618.8,604,634.2z"/>
	<g>
		<path class="st4" d="M576.9,569.6c0,26.1-21.2,47.2-47.3,47.2s-47.3-21.1-47.3-47.2s21.2-47.2,47.3-47.2v39.1
			c0,4.5,3.6,8.1,8.1,8.1H576.9z"/>
		<path class="st4" d="M585.2,561.4h-39.1c-4.5,0-8.1-3.6-8.1-8.1v-39.1C564,514.2,585.2,535.3,585.2,561.4z"/>
	</g>
</g>
</svg>
